<?xml version="1.0" encoding="UTF-8"?><svg id="svg5" xmlns="http://www.w3.org/2000/svg" xmlns:xlink="http://www.w3.org/1999/xlink" viewBox="0 0 750.37 790.89"><defs><style>.cls-1{fill:none;}.cls-1,.cls-2,.cls-3{isolation:isolate;}.cls-4{stroke:#ebebeb;stroke-miterlimit:11.34;stroke-width:2px;}.cls-4,.cls-2,.cls-3{fill:#fff;}.cls-2{font-family:Helvetica, Helvetica;font-size:20px;}.cls-3{font-family:Helvetica-Bold, Helvetica;font-size:24px;font-weight:700;}</style></defs><g id="layer1"><image id="image871" class="cls-1" width="1000" height="1054" transform="scale(.75)" xlink:href="../../../../../../../../../../../../Users/jrug001/Desktop/desktop/nzorchids/images/BD6FEEC6F73E77D7.jpeg"/><text class="cls-2" transform="translate(69.96 733.7)"><tspan x="0" y="0">pointed lobe</tspan></text><path id="path6535-9" class="cls-4" d="m186.8,729.46l97.7,5.4"/><text class="cls-3" transform="translate(544.99 533.56)"><tspan x="0" y="0">Leaf</tspan></text><path id="path6535-9-6-6-6-7-6" class="cls-4" d="m537.2,530.06l-94.4,74.9"/><text class="cls-3" transform="translate(570.37 444.65)"><tspan x="0" y="0">Labellum</tspan></text><path id="path6535-9-6-6-6-7" class="cls-4" d="m564.1,438.76l-124.4,36.2"/><path id="path6535-9-6-5-8-3-0" class="cls-4" d="m573.3,318.86l16.7,62.5"/><text class="cls-3" transform="translate(501.91 310.46)"><tspan x="0" y="0">Lateral Sepal</tspan></text><path id="path6535-9-6-5-8-3" class="cls-4" d="m210,366.56l16.7,62.5"/><text class="cls-3" transform="translate(132.66 355.14)"><tspan x="0" y="0">Lateral Sepal</tspan></text><path id="path6535-9-6-5-8" class="cls-4" d="m359.8,264.66l16.7,62.5"/><text class="cls-3" transform="translate(313.52 256.22)"><tspan x="0" y="0">Dorsal Sepal</tspan></text><path id="path6535-9-6-5" class="cls-4" d="m396.9,153.56l126.6,45.1"/><text class="cls-3" transform="translate(333.74 140.35)"><tspan x="0" y="0">Petals</tspan></text><path id="path6535-9-6" class="cls-4" d="m271.2,213.66l79.5-60.3"/></g></svg>